<?plantuml 1.2026.2?><svg xmlns="http://www.w3.org/2000/svg" xmlns:xlink="http://www.w3.org/1999/xlink" contentStyleType="text/css" data-diagram-type="SALT" height="734px" preserveAspectRatio="none" style="width:450px;height:734px;background:#FFFFFF;" version="1.1" viewBox="0 0 450 734" width="450px" zoomAndPan="magnify"><title>MindHarbor - Wellness Journal - Wireframe</title><defs/><g><g class="title" data-source-line="1"><text fill="#000000" font-family="sans-serif" font-size="14" font-weight="bold" lengthAdjust="spacing" textLength="287.0479" x="80.2007" y="29.0752">MindHarbor - Wellness Journal - Wireframe</text></g><text fill="#000000" font-family="sans-serif" font-size="12" lengthAdjust="spacing" textLength="39.3574" x="6" y="56.2158">Header</text><line style="stroke:#AAAAAA;stroke-width:1;" x1="6" x2="443.4492" y1="64.3525" y2="64.3525"/><text fill="#000000" font-family="sans-serif" font-size="12" font-weight="bold" lengthAdjust="spacing" textLength="172.0137" x="6" y="80.917">Journal quotidien de bien-&#234;tre</text><text fill="#000000" font-family="sans-serif" font-size="12" font-weight="bold" lengthAdjust="spacing" textLength="72.041" x="6" y="97.6182">13 aout 2026</text><text fill="#000000" font-family="sans-serif" font-size="12" font-weight="bold" lengthAdjust="spacing" textLength="98.0332" x="7" y="115.3193">Humeur g&#233;n&#233;rale</text><text fill="#000000" font-family="sans-serif" font-size="12" font-weight="bold" lengthAdjust="spacing" textLength="44.0156" x="107.0332" y="115.3193">&#201;nergie</text><text fill="#000000" font-family="sans-serif" font-size="12" font-weight="bold" lengthAdjust="spacing" textLength="50.0156" x="225.3848" y="115.3193">Sommeil</text><text fill="#000000" font-family="sans-serif" font-size="12" font-weight="bold" lengthAdjust="spacing" textLength="36.6914" x="314.7441" y="115.3193">Stress</text><text fill="#000000" font-family="sans-serif" font-size="12" lengthAdjust="spacing" textLength="64.0078" x="27" y="132.0205">1 - Tr&#232;s mal</text><ellipse cx="14" cy="127.3066" fill="none" rx="5" ry="5" style="stroke:#000000;stroke-width:1.5;"/><text fill="#000000" font-family="sans-serif" font-size="12" lengthAdjust="spacing" textLength="54.0293" x="127.0332" y="132.0205">1 - &#201;puis&#233;</text><ellipse cx="114.0332" cy="127.3066" fill="none" rx="5" ry="5" style="stroke:#000000;stroke-width:1.5;"/><text fill="#000000" font-family="sans-serif" font-size="12" lengthAdjust="spacing" textLength="64.6934" x="245.3848" y="132.0205">1 - Tr&#232;s peu</text><ellipse cx="232.3848" cy="127.3066" fill="none" rx="5" ry="5" style="stroke:#000000;stroke-width:1.5;"/><text fill="#000000" font-family="sans-serif" font-size="12" lengthAdjust="spacing" textLength="106.7051" x="334.7441" y="132.0205">1 - Tr&#232;s peu stress&#233;</text><ellipse cx="321.7441" cy="127.3066" fill="none" rx="5" ry="5" style="stroke:#000000;stroke-width:1.5;"/><text fill="#000000" font-family="sans-serif" font-size="12" lengthAdjust="spacing" textLength="36.6738" x="27" y="148.7217">2 - Mal</text><ellipse cx="14" cy="144.0078" fill="none" rx="5" ry="5" style="stroke:#000000;stroke-width:1.5;"/><text fill="#000000" font-family="sans-serif" font-size="12" lengthAdjust="spacing" textLength="57.3633" x="127.0332" y="148.7217">2 - Fatigu&#233;</text><ellipse cx="114.0332" cy="144.0078" fill="none" rx="5" ry="5" style="stroke:#000000;stroke-width:1.5;"/><text fill="#000000" font-family="sans-serif" font-size="12" lengthAdjust="spacing" textLength="38.6895" x="245.3848" y="148.7217">2 - Peu</text><ellipse cx="232.3848" cy="144.0078" fill="none" rx="5" ry="5" style="stroke:#000000;stroke-width:1.5;"/><text fill="#000000" font-family="sans-serif" font-size="12" lengthAdjust="spacing" textLength="80.7012" x="334.7441" y="148.7217">2 - Peu stress&#233;</text><ellipse cx="321.7441" cy="144.0078" fill="none" rx="5" ry="5" style="stroke:#000000;stroke-width:1.5;"/><text fill="#000000" font-family="sans-serif" font-size="12" lengthAdjust="spacing" textLength="56.6777" x="27" y="165.4229">3 - Correct</text><ellipse cx="14" cy="160.709" fill="none" rx="5" ry="5" style="stroke:#000000;stroke-width:1.5;"/><ellipse cx="14" cy="160.709" fill="#000000" rx="2" ry="2" style="stroke:#000000;stroke-width:1.5;"/><text fill="#000000" font-family="sans-serif" font-size="12" lengthAdjust="spacing" textLength="66.7031" x="127.0332" y="165.4229">3 - Moyenne</text><ellipse cx="114.0332" cy="160.709" fill="none" rx="5" ry="5" style="stroke:#000000;stroke-width:1.5;"/><ellipse cx="114.0332" cy="160.709" fill="#000000" rx="2" ry="2" style="stroke:#000000;stroke-width:1.5;"/><text fill="#000000" font-family="sans-serif" font-size="12" lengthAdjust="spacing" textLength="53.3555" x="245.3848" y="165.4229">3 - Moyen</text><ellipse cx="232.3848" cy="160.709" fill="none" rx="5" ry="5" style="stroke:#000000;stroke-width:1.5;"/><ellipse cx="232.3848" cy="160.709" fill="#000000" rx="2" ry="2" style="stroke:#000000;stroke-width:1.5;"/><text fill="#000000" font-family="sans-serif" font-size="12" lengthAdjust="spacing" textLength="58.0195" x="334.7441" y="165.4229">3 - Stress&#233;</text><ellipse cx="321.7441" cy="160.709" fill="none" rx="5" ry="5" style="stroke:#000000;stroke-width:1.5;"/><ellipse cx="321.7441" cy="160.709" fill="#000000" rx="2" ry="2" style="stroke:#000000;stroke-width:1.5;"/><text fill="#000000" font-family="sans-serif" font-size="12" lengthAdjust="spacing" textLength="41.3555" x="27" y="182.124">4 - Bien</text><ellipse cx="14" cy="177.4102" fill="none" rx="5" ry="5" style="stroke:#000000;stroke-width:1.5;"/><text fill="#000000" font-family="sans-serif" font-size="12" lengthAdjust="spacing" textLength="72.0469" x="127.0332" y="182.124">4 - &#201;nergique</text><ellipse cx="114.0332" cy="177.4102" fill="none" rx="5" ry="5" style="stroke:#000000;stroke-width:1.5;"/><text fill="#000000" font-family="sans-serif" font-size="12" lengthAdjust="spacing" textLength="41.3555" x="245.3848" y="182.124">4 - Bien</text><ellipse cx="232.3848" cy="177.4102" fill="none" rx="5" ry="5" style="stroke:#000000;stroke-width:1.5;"/><text fill="#000000" font-family="sans-serif" font-size="12" lengthAdjust="spacing" textLength="83.3496" x="334.7441" y="182.124">4 - Tr&#232;s stress&#233;</text><ellipse cx="321.7441" cy="177.4102" fill="none" rx="5" ry="5" style="stroke:#000000;stroke-width:1.5;"/><text fill="#000000" font-family="sans-serif" font-size="12" lengthAdjust="spacing" textLength="67.3594" x="27" y="198.8252">5 - Tr&#232;s bien</text><ellipse cx="14" cy="194.1113" fill="none" rx="5" ry="5" style="stroke:#000000;stroke-width:1.5;"/><text fill="#000000" font-family="sans-serif" font-size="12" lengthAdjust="spacing" textLength="96.3516" x="127.0332" y="198.8252">5 - Plein d'&#233;nergie</text><ellipse cx="114.0332" cy="194.1113" fill="none" rx="5" ry="5" style="stroke:#000000;stroke-width:1.5;"/><text fill="#000000" font-family="sans-serif" font-size="12" lengthAdjust="spacing" textLength="67.3594" x="245.3848" y="198.8252">5 - Tr&#232;s bien</text><ellipse cx="232.3848" cy="194.1113" fill="none" rx="5" ry="5" style="stroke:#000000;stroke-width:1.5;"/><text fill="#000000" font-family="sans-serif" font-size="12" lengthAdjust="spacing" textLength="60.0293" x="334.7441" y="198.8252">5 - Anxieux</text><ellipse cx="321.7441" cy="194.1113" fill="none" rx="5" ry="5" style="stroke:#000000;stroke-width:1.5;"/><line style="stroke:#AAAAAA;stroke-width:1;" x1="6" x2="443.4492" y1="207.9619" y2="207.9619"/><text fill="#000000" font-family="sans-serif" font-size="12" font-weight="bold" lengthAdjust="spacing" textLength="94.0137" x="7" y="225.5264">Activit&#233;s du jour</text><text fill="#000000" font-family="sans-serif" font-size="12" lengthAdjust="spacing" textLength="46.0137" x="27" y="242.2275">Exercice</text><rect fill="none" height="10" style="stroke:#000000;stroke-width:1.5;" width="10" x="9" y="232.5137"/><text fill="#000000" font-family="sans-serif" font-size="12" lengthAdjust="spacing" textLength="91.3652" x="123.0137" y="242.2275">Activit&#233;s sociales</text><rect fill="none" height="10" style="stroke:#000000;stroke-width:1.5;" width="10" x="105.0137" y="232.5137"/><text fill="#000000" font-family="sans-serif" font-size="12" lengthAdjust="spacing" textLength="36.0059" x="236.3789" y="242.2275">Travail</text><rect fill="none" height="10" style="stroke:#000000;stroke-width:1.5;" width="10" x="218.3789" y="232.5137"/><text fill="#000000" font-family="sans-serif" font-size="12" lengthAdjust="spacing" textLength="55.3652" x="27" y="258.9287">M&#233;ditation</text><rect fill="none" height="10" style="stroke:#000000;stroke-width:1.5;" width="10" x="9" y="249.2148"/><text fill="#000000" font-family="sans-serif" font-size="12" lengthAdjust="spacing" textLength="34.6758" x="123.0137" y="258.9287">Loisirs</text><rect fill="none" height="10" style="stroke:#000000;stroke-width:1.5;" width="10" x="105.0137" y="249.2148"/><text fill="#000000" font-family="sans-serif" font-size="12" lengthAdjust="spacing" textLength="37.3594" x="236.3789" y="258.9287">&#201;tudes</text><rect fill="none" height="10" style="stroke:#000000;stroke-width:1.5;" width="10" x="218.3789" y="249.2148"/><text fill="#000000" font-family="sans-serif" font-size="12" lengthAdjust="spacing" textLength="40.0254" x="27" y="275.6299">Lecture</text><rect fill="none" height="10" style="stroke:#000000;stroke-width:1.5;" width="10" x="9" y="265.916"/><text fill="#000000" font-family="sans-serif" font-size="12" lengthAdjust="spacing" textLength="34.6875" x="123.0137" y="275.6299">Repos</text><rect fill="none" height="10" style="stroke:#000000;stroke-width:1.5;" width="10" x="105.0137" y="265.916"/><text fill="#000000" font-family="sans-serif" font-size="12" lengthAdjust="spacing" textLength="28.6816" x="236.3789" y="275.6299">Autre</text><rect fill="none" height="10" style="stroke:#000000;stroke-width:1.5;" width="10" x="218.3789" y="265.916"/><line style="stroke:#AAAAAA;stroke-width:1;" x1="6" x2="443.4492" y1="284.7666" y2="284.7666"/><text fill="#000000" font-family="sans-serif" font-size="12" font-weight="bold" lengthAdjust="spacing" textLength="135.3809" x="6" y="301.3311">&#201;v&#233;nements marquants</text><text fill="#000000" font-family="sans-serif" font-size="12" lengthAdjust="spacing" textLength="139.3828" x="7" y="319.0322">&#201;cris tes &#233;v&#233;nements ici...</text><text fill="#000000" font-family="sans-serif" font-size="12" lengthAdjust="spacing" textLength="3.334" x="10" y="402.5381">&#160;</text><line style="stroke:#000000;stroke-width:1;" x1="8" x2="363" y1="405.1748" y2="405.1748"/><line style="stroke:#000000;stroke-width:1;" x1="8" x2="8" y1="402.1748" y2="404.1748"/><line style="stroke:#000000;stroke-width:1;" x1="363" x2="363" y1="402.1748" y2="404.1748"/><line style="stroke:#000000;stroke-width:1;" x1="6" x2="366" y1="305.9678" y2="305.9678"/><line style="stroke:#000000;stroke-width:1;" x1="6" x2="366" y1="408.1748" y2="408.1748"/><line style="stroke:#000000;stroke-width:1;" x1="6" x2="6" y1="305.9678" y2="322.6689"/><line style="stroke:#000000;stroke-width:1;" x1="366" x2="366" y1="322.6689" y2="339.3701"/><line style="stroke:#000000;stroke-width:1;" x1="366" x2="366" y1="305.9678" y2="322.6689"/><line style="stroke:#000000;stroke-width:1;" x1="6" x2="6" y1="389.4736" y2="408.1748"/><line style="stroke:#000000;stroke-width:1;" x1="6" x2="6" y1="372.7725" y2="389.4736"/><line style="stroke:#000000;stroke-width:1;" x1="366" x2="366" y1="389.4736" y2="408.1748"/><line style="stroke:#000000;stroke-width:1;" x1="6" x2="6" y1="356.0713" y2="372.7725"/><line style="stroke:#000000;stroke-width:1;" x1="366" x2="366" y1="372.7725" y2="389.4736"/><line style="stroke:#000000;stroke-width:1;" x1="6" x2="6" y1="339.3701" y2="356.0713"/><line style="stroke:#000000;stroke-width:1;" x1="366" x2="366" y1="356.0713" y2="372.7725"/><line style="stroke:#000000;stroke-width:1;" x1="6" x2="6" y1="322.6689" y2="339.3701"/><line style="stroke:#000000;stroke-width:1;" x1="366" x2="366" y1="339.3701" y2="356.0713"/><rect fill="none" height="102.207" style="stroke:#000000;stroke-width:1;" width="15" x="370" y="305.9678"/><line style="stroke:#000000;stroke-width:1;" x1="370" x2="385" y1="317.9678" y2="317.9678"/><line style="stroke:#000000;stroke-width:1;" x1="370" x2="385" y1="396.1748" y2="396.1748"/><path d="M377,309.9678 L380,314.9678 L374,314.9678 L377,309.9678" fill="#000000"/><path d="M377,405.1748 L380,400.1748 L374,400.1748 L377,405.1748" fill="#000000"/><line style="stroke:#AAAAAA;stroke-width:1;" x1="6" x2="443.4492" y1="413.6748" y2="413.6748"/><text fill="#000000" font-family="sans-serif" font-size="12" font-weight="bold" lengthAdjust="spacing" textLength="114.668" x="7" y="431.2393">Gratitude (facultatif)</text><text fill="#000000" font-family="sans-serif" font-size="12" lengthAdjust="spacing" textLength="152.748" x="8" y="448.9404">Je suis reconnaissant pour...</text><text fill="#000000" font-family="sans-serif" font-size="12" lengthAdjust="spacing" textLength="3.334" x="11" y="515.7451">&#160;</text><line style="stroke:#000000;stroke-width:1;" x1="9" x2="364" y1="518.3818" y2="518.3818"/><line style="stroke:#000000;stroke-width:1;" x1="9" x2="9" y1="515.3818" y2="517.3818"/><line style="stroke:#000000;stroke-width:1;" x1="364" x2="364" y1="515.3818" y2="517.3818"/><line style="stroke:#000000;stroke-width:1;" x1="7" x2="367" y1="435.876" y2="435.876"/><line style="stroke:#000000;stroke-width:1;" x1="7" x2="367" y1="521.3818" y2="521.3818"/><line style="stroke:#000000;stroke-width:1;" x1="7" x2="7" y1="435.876" y2="452.5771"/><line style="stroke:#000000;stroke-width:1;" x1="367" x2="367" y1="452.5771" y2="469.2783"/><line style="stroke:#000000;stroke-width:1;" x1="367" x2="367" y1="435.876" y2="452.5771"/><line style="stroke:#000000;stroke-width:1;" x1="7" x2="7" y1="502.6807" y2="521.3818"/><line style="stroke:#000000;stroke-width:1;" x1="7" x2="7" y1="485.9795" y2="502.6807"/><line style="stroke:#000000;stroke-width:1;" x1="367" x2="367" y1="502.6807" y2="521.3818"/><line style="stroke:#000000;stroke-width:1;" x1="7" x2="7" y1="469.2783" y2="485.9795"/><line style="stroke:#000000;stroke-width:1;" x1="367" x2="367" y1="485.9795" y2="502.6807"/><line style="stroke:#000000;stroke-width:1;" x1="7" x2="7" y1="452.5771" y2="469.2783"/><line style="stroke:#000000;stroke-width:1;" x1="367" x2="367" y1="469.2783" y2="485.9795"/><rect fill="none" height="85.5059" style="stroke:#000000;stroke-width:1;" width="15" x="371" y="435.876"/><line style="stroke:#000000;stroke-width:1;" x1="371" x2="386" y1="447.876" y2="447.876"/><line style="stroke:#000000;stroke-width:1;" x1="371" x2="386" y1="509.3818" y2="509.3818"/><path d="M378,439.876 L381,444.876 L375,444.876 L378,439.876" fill="#000000"/><path d="M378,518.3818 L381,513.3818 L375,513.3818 L378,518.3818" fill="#000000"/><line style="stroke:#AAAAAA;stroke-width:1;" x1="6" x2="443.4492" y1="527.8818" y2="527.8818"/><rect fill="#EEEEEE" height="18.7012" rx="5" ry="5" style="stroke:#000000;stroke-width:2.5;" width="108" x="8.5" y="534.8818"/><text fill="#000000" font-family="sans-serif" font-size="12" lengthAdjust="spacing" textLength="58.6875" x="33.1563" y="548.9463">Enregistrer</text><line style="stroke:#AAAAAA;stroke-width:1;" x1="6" x2="443.4492" y1="561.583" y2="561.583"/><text fill="#000000" font-family="sans-serif" font-size="12" font-weight="bold" lengthAdjust="spacing" textLength="112.0547" x="6" y="578.1475">Entr&#233;es ant&#233;rieures</text><text fill="#000000" font-family="sans-serif" font-size="12" font-weight="bold" lengthAdjust="spacing" textLength="26.0098" x="7" y="595.8486">Date</text><text fill="#000000" font-family="sans-serif" font-size="12" font-weight="bold" lengthAdjust="spacing" textLength="45.3398" x="79.0664" y="595.8486">Humeur</text><text fill="#000000" font-family="sans-serif" font-size="12" font-weight="bold" lengthAdjust="spacing" textLength="44.0156" x="126.4063" y="595.8486">&#201;nergie</text><text fill="#000000" font-family="sans-serif" font-size="12" font-weight="bold" lengthAdjust="spacing" textLength="50.0156" x="172.4219" y="595.8486">Sommeil</text><text fill="#000000" font-family="sans-serif" font-size="12" font-weight="bold" lengthAdjust="spacing" textLength="36.6914" x="224.4375" y="595.8486">Stress</text><text fill="#000000" font-family="sans-serif" font-size="12" font-weight="bold" lengthAdjust="spacing" textLength="37.3301" x="263.1289" y="595.8486">Action</text><text fill="#000000" font-family="sans-serif" font-size="12" lengthAdjust="spacing" textLength="70.0664" x="7" y="612.5498">12 ao&#251;t 2026</text><text fill="#000000" font-family="sans-serif" font-size="12" lengthAdjust="spacing" textLength="23.3496" x="79.0664" y="612.5498">3 / 5</text><text fill="#000000" font-family="sans-serif" font-size="12" lengthAdjust="spacing" textLength="23.3496" x="126.4063" y="612.5498">2 / 5</text><text fill="#000000" font-family="sans-serif" font-size="12" lengthAdjust="spacing" textLength="23.3496" x="172.4219" y="612.5498">4 / 5</text><text fill="#000000" font-family="sans-serif" font-size="12" lengthAdjust="spacing" textLength="23.3496" x="224.4375" y="612.5498">4 / 5</text><rect fill="#EEEEEE" height="18.7012" rx="5" ry="5" style="stroke:#000000;stroke-width:2.5;" width="92" x="265.6289" y="602.9854"/><text fill="#000000" font-family="sans-serif" font-size="12" lengthAdjust="spacing" textLength="51.3574" x="285.9502" y="617.0498">Consulter</text><text fill="#000000" font-family="sans-serif" font-size="12" lengthAdjust="spacing" textLength="70.0664" x="7" y="638.251">11 ao&#251;t 2026</text><text fill="#000000" font-family="sans-serif" font-size="12" lengthAdjust="spacing" textLength="23.3496" x="79.0664" y="638.251">4 / 5</text><text fill="#000000" font-family="sans-serif" font-size="12" lengthAdjust="spacing" textLength="23.3496" x="126.4063" y="638.251">3 / 5</text><text fill="#000000" font-family="sans-serif" font-size="12" lengthAdjust="spacing" textLength="23.3496" x="172.4219" y="638.251">3 / 5</text><text fill="#000000" font-family="sans-serif" font-size="12" lengthAdjust="spacing" textLength="23.3496" x="224.4375" y="638.251">2 / 5</text><rect fill="#EEEEEE" height="18.7012" rx="5" ry="5" style="stroke:#000000;stroke-width:2.5;" width="92" x="265.6289" y="628.6865"/><text fill="#000000" font-family="sans-serif" font-size="12" lengthAdjust="spacing" textLength="51.3574" x="285.9502" y="642.751">Consulter</text><text fill="#000000" font-family="sans-serif" font-size="12" lengthAdjust="spacing" textLength="70.0664" x="7" y="663.9521">10 ao&#251;t 2026</text><text fill="#000000" font-family="sans-serif" font-size="12" lengthAdjust="spacing" textLength="23.3496" x="79.0664" y="663.9521">2 / 5</text><text fill="#000000" font-family="sans-serif" font-size="12" lengthAdjust="spacing" textLength="23.3496" x="126.4063" y="663.9521">2 / 5</text><text fill="#000000" font-family="sans-serif" font-size="12" lengthAdjust="spacing" textLength="23.3496" x="172.4219" y="663.9521">3 / 5</text><text fill="#000000" font-family="sans-serif" font-size="12" lengthAdjust="spacing" textLength="23.3496" x="224.4375" y="663.9521">5 / 5</text><rect fill="#EEEEEE" height="18.7012" rx="5" ry="5" style="stroke:#000000;stroke-width:2.5;" width="92" x="265.6289" y="654.3877"/><text fill="#000000" font-family="sans-serif" font-size="12" lengthAdjust="spacing" textLength="51.3574" x="285.9502" y="668.4521">Consulter</text><rect fill="#EEEEEE" height="18.7012" rx="5" ry="5" style="stroke:#000000;stroke-width:2.5;" width="108" x="9.5" y="682.0889"/><text fill="#000000" font-family="sans-serif" font-size="12" lengthAdjust="spacing" textLength="65.0449" x="30.9775" y="696.1533">&lt; Pr&#233;c&#233;dent</text><text fill="#000000" font-family="sans-serif" font-size="12" lengthAdjust="spacing" textLength="64.7227" x="122" y="691.6533">Page 1 de 3</text><rect fill="#EEEEEE" height="18.7012" rx="5" ry="5" style="stroke:#000000;stroke-width:2.5;" width="92" x="191.2227" y="682.0889"/><text fill="#000000" font-family="sans-serif" font-size="12" lengthAdjust="spacing" textLength="50.3672" x="212.0391" y="696.1533">Suivant &gt;</text><line style="stroke:#AAAAAA;stroke-width:1;" x1="6" x2="443.4492" y1="709.79" y2="709.79"/><text fill="#000000" font-family="sans-serif" font-size="12" lengthAdjust="spacing" textLength="34.6816" x="6" y="726.3545">Footer</text><rect fill="none" height="102.207" style="stroke:#000000;stroke-width:1;" width="15" x="370" y="305.9678"/><line style="stroke:#000000;stroke-width:1;" x1="370" x2="385" y1="317.9678" y2="317.9678"/><line style="stroke:#000000;stroke-width:1;" x1="370" x2="385" y1="396.1748" y2="396.1748"/><path d="M377,309.9678 L380,314.9678 L374,314.9678 L377,309.9678" fill="#000000"/><path d="M377,405.1748 L380,400.1748 L374,400.1748 L377,405.1748" fill="#000000"/><rect fill="none" height="85.5059" style="stroke:#000000;stroke-width:1;" width="15" x="371" y="435.876"/><line style="stroke:#000000;stroke-width:1;" x1="371" x2="386" y1="447.876" y2="447.876"/><line style="stroke:#000000;stroke-width:1;" x1="371" x2="386" y1="509.3818" y2="509.3818"/><path d="M378,439.876 L381,444.876 L375,444.876 L378,439.876" fill="#000000"/><path d="M378,518.3818 L381,513.3818 L375,513.3818 L378,518.3818" fill="#000000"/><?plantuml-src bLNDJjj04BxxAKPS2eS4ua1F4OAsK8g853L8hOGuREmXsihP3ViJKOKyGDwaxYlqk2_MsOtjs4a0iGV7_cPclzcPRoTdsZ1bDCjCPBZ94FfSf5TCZQI25lp0B1EeDLnBgmJBFCGLFYWsmIYQHrV8KbHHgnNrHgUbpwELXgSS1QG88_fjkRz6OUzmTEhTEbrWqXg8Z-AF0Pj708HVsGbQ1MEN2vShbeK0eFNihMufK8rv1POh68ToCa6UDGA6HAbr8F3O_W5qAFjRvVvec52MwmqAarjEBTSkX-RsZS0fsjsW3cmkBxbYilPhBElDlEMI6JwsJQhAE0WSsrYJukS1TCdmMIg5YQdlKbZwyZSAWKs6kcq36swSu9YmJxnmQoHq78eLsl5eSOUn5bPXgr9jbkcaiengLC-bQP0X9nLz84c4vZUCzRWAF1TF7ErJj206KYKzvu6B176U63xZnkKQKWk_IAoLEExkuU89LS8JB18WfEQlPS99a7fbk5LindXMHlPTdd937PMY3BsHN7EbDqf71hSqDaLTXjvGwwp2ciDtdCfcN9cDfT9Ht2AgJXPknSpNPeB2U5MhHylehJZNVFWj4BbbehW6G_cxlERF4zvkjuFBIyyzUCVQewhxKL1L_AkYglW3m_u3IspcY_HmK5MzpC-lQmHDjmz8p588nhMcWy2KcbIck4xgfRTt9kkV2qgPCgPcm8LGEEPUe0hkYubs8OnoETMDag6PHCeY-ORyow7rXPdwI7fU3xA0Re-khNcrCQnMtrvxKXILwiGqCDs_rSGiURfmI89VIoHkV1Dm_3f0egBX8JHr9HoOQ3exQ3Q3kfkxRW7nMpH7EsZYjqwpHNFoAis2-dC7FHXG-nAwdwHtk2Ul0HiZJMvIP3V432sVUQ6TXfXmiG0kfQHTl9ZFKAJXhp7gj7swxVW_?></g></svg>